<svg width="18" height="19" viewBox="0 0 18 19" fill="none" xmlns="http://www.w3.org/2000/svg">
<path d="M14 14.6667C14.4641 14.6667 14.9092 14.8598 15.2374 15.2036C15.5656 15.5475 15.75 16.0138 15.75 16.5C15.75 16.9862 15.5656 17.4525 15.2374 17.7964C14.9092 18.1402 14.4641 18.3333 14 18.3333C13.5359 18.3333 13.0908 18.1402 12.7626 17.7964C12.4344 17.4525 12.25 16.9862 12.25 16.5C12.25 15.4825 13.0288 14.6667 14 14.6667ZM0 0H2.86125L3.68375 1.83333H16.625C16.8571 1.83333 17.0796 1.92991 17.2437 2.10182C17.4078 2.27373 17.5 2.50688 17.5 2.75C17.5 2.90583 17.4562 3.06167 17.395 3.20833L14.2625 9.13917C13.965 9.69833 13.3875 10.0833 12.7312 10.0833H6.2125L5.425 11.5775L5.39875 11.6875C5.39875 11.7483 5.4218 11.8066 5.46282 11.8495C5.50384 11.8925 5.55948 11.9167 5.6175 11.9167H15.75V13.75H5.25C4.78587 13.75 4.34075 13.5568 4.01256 13.213C3.68437 12.8692 3.5 12.4029 3.5 11.9167C3.5 11.5958 3.57875 11.2933 3.71 11.0367L4.9 8.79083L1.75 1.83333H0V0ZM5.25 14.6667C5.71413 14.6667 6.15925 14.8598 6.48744 15.2036C6.81563 15.5475 7 16.0138 7 16.5C7 16.9862 6.81563 17.4525 6.48744 17.7964C6.15925 18.1402 5.71413 18.3333 5.25 18.3333C4.78587 18.3333 4.34075 18.1402 4.01256 17.7964C3.68437 17.4525 3.5 16.9862 3.5 16.5C3.5 15.4825 4.27875 14.6667 5.25 14.6667ZM13.125 8.25L15.5575 3.66667H4.4975L6.5625 8.25H13.125Z" fill="black"/>
</svg>
