<svg width="16" height="20" viewBox="0 0 16 20" fill="none" xmlns="http://www.w3.org/2000/svg">
<path d="M14.1499 7.14496L13.8499 16.2252C13.8243 17.0029 13.4967 17.74 12.9366 18.2801C12.3765 18.8202 11.628 19.1207 10.8499 19.118H5.1499C4.37232 19.1207 3.62421 18.8206 3.06418 18.2811C2.50415 17.7417 2.17622 17.0054 2.1499 16.2282L1.8499 7.14496C1.84333 6.94604 1.91606 6.75267 2.05207 6.60738C2.18808 6.46208 2.37624 6.37677 2.57515 6.37021C2.77406 6.36364 2.96743 6.43637 3.11273 6.57238C3.25802 6.70839 3.34333 6.89654 3.3499 7.09546L3.6499 16.178C3.66484 16.5657 3.82944 16.9325 4.10914 17.2015C4.38885 17.4704 4.76188 17.6205 5.1499 17.6202H10.8499C11.2384 17.6205 11.6119 17.47 11.8917 17.2004C12.1714 16.9308 12.3357 16.5632 12.3499 16.175L12.6499 7.09546C12.6565 6.89654 12.7418 6.70839 12.8871 6.57238C13.0324 6.43637 13.2257 6.36364 13.4246 6.37021C13.6236 6.37677 13.8117 6.46208 13.9477 6.60738C14.0837 6.75267 14.1565 6.94604 14.1499 7.14496ZM15.1421 4.12321C15.1421 4.32212 15.0631 4.51288 14.9225 4.65354C14.7818 4.79419 14.5911 4.87321 14.3921 4.87321H1.6084C1.40949 4.87321 1.21872 4.79419 1.07807 4.65354C0.937416 4.51288 0.858398 4.32212 0.858398 4.12321C0.858398 3.92429 0.937416 3.73353 1.07807 3.59288C1.21872 3.45222 1.40949 3.37321 1.6084 3.37321H3.9334C4.17103 3.37385 4.40041 3.28605 4.57688 3.1269C4.75336 2.96776 4.86431 2.74864 4.88815 2.51221C4.94349 1.95757 5.20334 1.4434 5.61707 1.06989C6.03079 0.69637 6.56876 0.490257 7.12615 0.491707H8.87365C9.43104 0.490257 9.969 0.69637 10.3827 1.06989C10.7965 1.4434 11.0563 1.95757 11.1116 2.51221C11.1355 2.74864 11.2464 2.96776 11.4229 3.1269C11.5994 3.28605 11.8288 3.37385 12.0664 3.37321H14.3914C14.5903 3.37321 14.7811 3.45222 14.9217 3.59288C15.0624 3.73353 15.1414 3.92429 15.1414 4.12321H15.1421ZM6.19015 3.37321H9.81115C9.71259 3.14801 9.64814 2.90939 9.6199 2.66521C9.60132 2.48034 9.51478 2.30895 9.37705 2.18424C9.23932 2.05953 9.0602 1.99039 8.8744 1.99021H7.1269C6.9411 1.99039 6.76198 2.05953 6.62425 2.18424C6.48652 2.30895 6.39998 2.48034 6.3814 2.66521C6.35292 2.90943 6.28896 3.14805 6.19015 3.37321ZM6.9454 14.7365V8.35021C6.9454 8.15129 6.86638 7.96053 6.72573 7.81988C6.58508 7.67922 6.39431 7.60021 6.1954 7.60021C5.99649 7.60021 5.80572 7.67922 5.66507 7.81988C5.52442 7.96053 5.4454 8.15129 5.4454 8.35021V14.7395C5.4454 14.9384 5.52442 15.1291 5.66507 15.2698C5.80572 15.4104 5.99649 15.4895 6.1954 15.4895C6.39431 15.4895 6.58508 15.4104 6.72573 15.2698C6.86638 15.1291 6.9454 14.9384 6.9454 14.7395V14.7365ZM10.5559 14.7365V8.35021C10.5559 8.15129 10.4769 7.96053 10.3362 7.81988C10.1956 7.67922 10.0048 7.60021 9.8059 7.60021C9.60699 7.60021 9.41622 7.67922 9.27557 7.81988C9.13492 7.96053 9.0559 8.15129 9.0559 8.35021V14.7395C9.0559 14.9384 9.13492 15.1291 9.27557 15.2698C9.41622 15.4104 9.60699 15.4895 9.8059 15.4895C10.0048 15.4895 10.1956 15.4104 10.3362 15.2698C10.4769 15.1291 10.5559 14.9384 10.5559 14.7395V14.7365Z" fill="black"/>
</svg>
