<svg width="24" height="24" viewBox="0 0 24 24" fill="none" xmlns="http://www.w3.org/2000/svg">
<path fill-rule="evenodd" clip-rule="evenodd" d="M14.3848 15.4461C13.037 16.523 11.328 17.0429 9.60873 16.8991C7.8895 16.7553 6.29059 15.9587 5.14039 14.6728C3.99019 13.3869 3.37601 11.7094 3.424 9.98486C3.47199 8.2603 4.17849 6.61956 5.39842 5.39964C6.61834 4.17971 8.25908 3.47321 9.98364 3.42522C11.7082 3.37724 13.3857 3.99141 14.6716 5.14161C15.9574 6.29181 16.7541 7.89072 16.8979 9.60995C17.0417 11.3292 16.5218 13.0382 15.4448 14.3861L20.6008 19.5411C20.6745 19.6097 20.7336 19.6925 20.7746 19.7845C20.8156 19.8765 20.8377 19.9758 20.8394 20.0765C20.8412 20.1772 20.8227 20.2773 20.785 20.3707C20.7472 20.464 20.6911 20.5489 20.6199 20.6201C20.5487 20.6913 20.4638 20.7475 20.3704 20.7852C20.2771 20.8229 20.177 20.8414 20.0763 20.8397C19.9756 20.8379 19.8763 20.8158 19.7843 20.7748C19.6923 20.7339 19.6095 20.6747 19.5408 20.6011L14.3848 15.4461ZM6.45884 13.8841C5.72488 13.15 5.225 12.2149 5.02236 11.1968C4.81972 10.1788 4.92342 9.1235 5.32036 8.16436C5.71729 7.20523 6.38965 6.38529 7.25246 5.80817C8.11526 5.23104 9.12979 4.92265 10.1678 4.92195C11.2058 4.92125 12.2208 5.22828 13.0844 5.80424C13.9479 6.3802 14.6214 7.19924 15.0196 8.15784C15.4179 9.11644 15.523 10.1716 15.3217 11.1899C15.1204 12.2082 14.6218 13.144 13.8888 13.8791L13.8838 13.8841L13.8788 13.8881C12.8939 14.8707 11.5593 15.4222 10.168 15.4214C8.77676 15.4207 7.44269 14.8677 6.45884 13.8841Z" fill="black"/>
</svg>
